# xmcd CD database file
#
# Track frame offsets:
#	150
#	20697
#	33420
#	56507
#	77317
#	101617
#	119290
#	143847
#	163817
#	184582
#	204882
#	221912
#	241667
#
# Disc length: 3580 seconds
#
# Revision: 0
# Processed by: cddbd v1.5.1PL0 Copyright (c) Steve Scherf et al.
# Submitted via: CDex 1.51
#
DISCID=a80dfa0d
DTITLE=HOUND　DOG - Lucky Star
DYEAR=1999
DGENRE=Rock and Roll
TTITLE0=だから大好きロックンロール
TTITLE1=浮気なパレットキャット
TTITLE2=RAINY LADY GOOD-BYE
TTITLE3=ライムライト
TTITLE4=火の玉ボーイ〜俺はラッキースター
TTITLE5=P.S. I LOVE YOU
TTITLE6=Hot Line
TTITLE7=Punky Girl
TTITLE8=狼と踊れ
TTITLE9=ジェラス・ガイ
TTITLE10=STILL!
TTITLE11=ラスト・ヒーロー
TTITLE12=涙のBirthday
EXTD=YEAR: 1999
EXTT0=
EXTT1=
EXTT2=
EXTT3=
EXTT4=
EXTT5=
EXTT6=
EXTT7=
EXTT8=
EXTT9=
EXTT10=
EXTT11=
EXTT12=
PLAYORDER=
